<?xml version="1.0" encoding="UTF-8"?>
<svg id="Layer_1" xmlns="http://www.w3.org/2000/svg" xmlns:xlink="http://www.w3.org/1999/xlink" version="1.1" viewBox="0 0 494.7 181.2">
  <!-- Generator: Adobe Illustrator 29.0.1, SVG Export Plug-In . SVG Version: 2.1.0 Build 192)  -->
  <defs>
    <style>
      .st0 {
        fill: #525252;
      }

      .st1 {
        fill: #fff;
      }

      .st2 {
        opacity: .4;
      }

      .st3 {
        fill: #9ef05e;
      }
    </style>
  </defs>
  <rect class="st0" width="494.7" height="181.2"/>
  <g>
    <g class="st2">
      <image width="252" height="189" transform="translate(-14.8 6.3)" xlink:href="vaki-logo-1.png"/>
    </g>
    <polygon class="st3" points="199.8 32.6 84.9 154.5 20.6 92.6 44.3 68.4 84.5 107 154 32.6 199.8 32.6"/>
    <polygon class="st1" points="345.3 32.6 345.3 102.1 410.6 32.6 428.5 32.6 379.6 84.8 430.3 151.6 429.7 152.6 414.1 152.6 369.5 95.3 345.3 121 345.3 151.8 344.5 152.6 331.3 152.6 330.6 151.8 330.6 32.6 345.3 32.6"/>
    <path class="st1" d="M182.9,152.6l-.7-1.1,53.8-118.1c.4-.8.9-.7,1.6-.8,4.3-.5,9.4.4,13.8,0l54.8,120h-14.2l-1.7-2.3-12.4-27.3-1.6-.8h-65.6c0,0-14.3,30.4-14.3,30.4h-13.7ZM272.3,109.5l-28.4-61.7-27.4,61.7h55.8Z"/>
    <polygon class="st1" points="469.6 32.6 469.6 151.8 468.9 152.6 455.7 152.6 455 151.8 455 32.6 469.6 32.6"/>
  </g>
</svg>