<?xml version="1.0" encoding="UTF-8"?>
<svg id="Layer_1" xmlns="http://www.w3.org/2000/svg" version="1.1" viewBox="0 0 494.7 181.2">
  <defs>
    <style>
      .st1 {
        fill: #fff;
      }
    </style>
  </defs>
  <g>
    <polygon class="st1" points="345.3 32.6 345.3 102.1 410.6 32.6 428.5 32.6 379.6 84.8 430.3 151.6 429.7 152.6 414.1 152.6 369.5 95.3 345.3 121 345.3 151.8 344.5 152.6 331.3 152.6 330.6 151.8 330.6 32.6 345.3 32.6"/>
    <path class="st1" d="M182.9,152.6l-.7-1.1,53.8-118.1c.4-.8.9-.7,1.6-.8,4.3-.5,9.4.4,13.8,0l54.8,120h-14.2l-1.7-2.3-12.4-27.3-1.6-.8h-65.6l-14.3,30.4h-13.7.2ZM272.3,109.5l-28.4-61.7-27.4,61.7h55.8Z"/>
    <polygon class="st1" points="469.6 32.6 469.6 151.8 468.9 152.6 455.7 152.6 455 151.8 455 32.6 469.6 32.6"/>
  </g>
</svg>
